<?xml version="1.0" standalone="no"?>
<!DOCTYPE svg PUBLIC "-//W3C//DTD SVG 20010904//EN"
 "http://www.w3.org/TR/2001/REC-SVG-20010904/DTD/svg10.dtd">
<svg version="1.0" xmlns="http://www.w3.org/2000/svg"
 width="664.000000pt" height="187.000000pt" viewBox="0 0 664.000000 187.000000"
 preserveAspectRatio="xMidYMid meet">
<metadata>
Created by potrace 1.16, written by Peter Selinger 2001-2019
</metadata>
<g transform="translate(0.000000,187.000000) scale(0.100000,-0.100000)"
fill="#000000" stroke="none">
<path d="M802 1733 c-1 -6 -14 -16 -29 -23 -39 -16 -94 -47 -106 -59 -6 -6
-18 -11 -28 -11 -9 0 -28 -11 -42 -24 -14 -13 -39 -30 -56 -37 -17 -8 -31 -17
-31 -21 0 -5 -7 -8 -15 -8 -24 0 -75 -29 -75 -43 0 -12 -62 -44 -110 -58 -15
-4 12 -7 65 -8 81 -1 152 13 171 32 4 4 16 7 27 7 22 0 97 40 97 52 0 4 8 8
18 8 9 0 26 7 36 15 11 8 26 15 33 15 8 0 23 8 34 19 17 16 19 28 16 87 -1 38
-4 64 -5 57z"/>
<path d="M1206 375 c-3 -8 -17 -15 -31 -15 -14 0 -25 -4 -25 -10 0 -5 -9 -10
-20 -10 -24 0 -89 -29 -114 -52 -11 -10 -28 -18 -38 -18 -10 0 -18 -4 -18 -9
0 -5 -9 -12 -19 -16 -16 -5 -20 -17 -23 -73 -2 -37 -3 -68 -2 -70 2 -4 86 41
104 56 31 27 91 62 105 62 8 0 15 5 15 10 0 6 9 10 20 10 11 0 20 4 20 8 0 5
18 17 40 28 22 10 40 22 40 27 0 4 9 7 20 7 11 0 20 5 20 10 0 6 9 10 20 10
11 0 20 7 20 15 0 8 1 15 3 15 1 0 20 7 42 15 39 14 38 14 -66 15 -86 0 -108
-3 -113 -15z"/>
</g>
</svg>
